<svg width="48" height="76" viewBox="0 0 48 76" fill="none" xmlns="http://www.w3.org/2000/svg">
<path d="M27.0049 60.1088L28.0049 56.9888C28.5349 54.4788 18.2849 60.3988 17.7449 62.9088L21.0549 71.8088C21.1645 72.0758 21.3574 72.3003 21.6049 72.4488C22.3349 72.8988 25.0049 74.4488 25.2349 74.5488C25.4202 74.6621 25.6288 74.7318 25.8449 74.7524C26.0611 74.7731 26.2791 74.7443 26.4825 74.6681C26.6858 74.592 26.8692 74.4705 27.0186 74.313C27.168 74.1554 27.2796 73.9659 27.3449 73.7588L31.6249 59.0888C31.8949 57.8488 29.5349 58.6488 27.0049 60.1088Z" fill="#AFC3FF"/>
<path opacity="0.2" d="M27.0049 60.1088L28.0049 56.9888C28.5349 54.4788 18.2849 60.3988 17.7449 62.9088L21.0549 71.8088C21.1645 72.0758 21.3574 72.3003 21.6049 72.4488C22.3349 72.8988 25.0049 74.4488 25.2349 74.5488C25.4202 74.6621 25.6288 74.7318 25.8449 74.7524C26.0611 74.7731 26.2791 74.7443 26.4825 74.6681C26.6858 74.592 26.8692 74.4705 27.0186 74.313C27.168 74.1554 27.2796 73.9659 27.3449 73.7588L31.6249 59.0888C31.8949 57.8488 29.5349 58.6488 27.0049 60.1088Z" fill="white"/>
<path d="M40.9349 0.328841L1.93475 22.8188C1.55095 23.0683 1.23135 23.4047 1.00195 23.8009C0.772645 24.1971 0.639946 24.6418 0.614746 25.0988V71.2888C0.638246 71.7436 0.770347 72.1861 0.999947 72.5793C1.22965 72.9725 1.55015 73.305 1.93475 73.5488L4.35474 74.9188C4.76564 75.1202 5.21714 75.2248 5.67474 75.2248C6.13234 75.2248 6.58384 75.1202 6.99474 74.9188L45.9949 52.4388C46.3759 52.1877 46.6929 51.8506 46.9209 51.4547C47.1479 51.0587 47.2799 50.6149 47.3049 50.1588V3.94884C47.2849 3.48884 47.1559 3.04012 46.9289 2.64005C46.7009 2.23998 46.381 1.90014 45.9949 1.64884L43.5849 0.28884C43.1699 0.0921083 42.7149 -0.00659356 42.2549 0.000341759C41.7959 0.00727708 41.3439 0.119665 40.9349 0.328841Z" fill="#AFC3FF"/>
<path opacity="0.2" d="M40.9349 0.328841L1.93475 22.8188C1.55095 23.0683 1.23135 23.4047 1.00195 23.8009C0.772645 24.1971 0.639946 24.6418 0.614746 25.0988V71.2888C0.638246 71.7436 0.770347 72.1861 0.999947 72.5793C1.22965 72.9725 1.55015 73.305 1.93475 73.5488L4.35474 74.9188C4.76564 75.1202 5.21714 75.2248 5.67474 75.2248C6.13234 75.2248 6.58384 75.1202 6.99474 74.9188L45.9949 52.4388C46.3759 52.1877 46.6929 51.8506 46.9209 51.4547C47.1479 51.0587 47.2799 50.6149 47.3049 50.1588V3.94884C47.2849 3.48884 47.1559 3.04012 46.9289 2.64005C46.7009 2.23998 46.381 1.90014 45.9949 1.64884L43.5849 0.28884C43.1699 0.0921083 42.7149 -0.00659356 42.2549 0.000341759C41.7959 0.00727708 41.3439 0.119665 40.9349 0.328841Z" fill="white"/>
<path d="M46.0051 3.18884L7.02488 25.6488C6.64448 25.9057 6.33017 26.2488 6.10777 26.6503C5.88527 27.0517 5.76097 27.5001 5.74487 27.9588V74.1388C5.74487 74.9788 6.33487 75.3188 7.06487 74.8988L21.9749 66.2988L24.7149 73.8988C24.832 74.1643 25.027 74.3878 25.274 74.5398C25.5211 74.6918 25.8085 74.765 26.0982 74.7499C26.3879 74.7347 26.6661 74.6318 26.8959 74.4548C27.1257 74.2777 27.2963 74.035 27.3849 73.7588L31.0249 61.0788L46.0251 52.4188C46.4061 52.1677 46.7231 51.8306 46.9511 51.4346C47.1781 51.0387 47.3101 50.5948 47.3351 50.1388V3.94885C47.3151 3.10885 46.7451 2.76884 46.0051 3.18884Z" fill="#AFC3FF"/>
<path opacity="0.4" d="M46.0051 3.18884L7.02488 25.6488C6.64448 25.9057 6.33017 26.2488 6.10777 26.6503C5.88527 27.0517 5.76097 27.5001 5.74487 27.9588V74.1388C5.74487 74.9788 6.33487 75.3188 7.06487 74.8988L21.9749 66.2988L24.7149 73.8988C24.832 74.1643 25.027 74.3878 25.274 74.5398C25.5211 74.6918 25.8085 74.765 26.0982 74.7499C26.3879 74.7347 26.6661 74.6318 26.8959 74.4548C27.1257 74.2777 27.2963 74.035 27.3849 73.7588L31.0249 61.0788L46.0251 52.4188C46.4061 52.1677 46.7231 51.8306 46.9511 51.4346C47.1781 51.0387 47.3101 50.5948 47.3351 50.1388V3.94885C47.3151 3.10885 46.7451 2.76884 46.0051 3.18884Z" fill="white"/>
<path d="M24.4547 26.3789V29.9389L22.0847 31.9389V47.2888C22.0847 49.2288 22.4747 50.4588 23.2647 50.9688C24.0547 51.4788 25.1147 51.3389 26.4847 50.5589C27.8608 49.7658 28.9895 48.606 29.7447 47.2088C30.5629 45.6716 30.9727 43.9499 30.9347 42.2088V26.8089L28.5847 27.5589V23.9988L37.7449 18.7289V22.2788L35.3749 24.2788V39.6488C35.3919 42.8198 34.5334 45.934 32.8947 48.6488C31.3458 51.2967 29.1374 53.4982 26.4847 55.0388C23.8447 56.5588 21.7147 56.8988 20.0947 56.0388C18.4747 55.1788 17.6647 53.1089 17.6647 49.8089V34.4588L15.3147 35.2088V31.6488L17.6647 30.2888L22.0847 27.7388L24.4547 26.3789Z" fill="white"/>
<path opacity="0.7" d="M47.2949 3.71883C47.1949 3.04883 46.6549 2.80883 45.9949 3.18883L7.02473 25.6488C6.63563 25.8987 6.31573 26.2426 6.09473 26.6488L1.09473 23.7488C1.31473 23.3644 1.62762 23.0412 2.00472 22.8088L41.0049 0.318825C41.4159 0.11749 41.8669 0.0128174 42.3249 0.0128174C42.7819 0.0128174 43.2339 0.11749 43.6449 0.318825L45.9949 1.64883C46.3489 1.87894 46.6479 2.18327 46.8729 2.54071C47.0969 2.89815 47.2409 3.30016 47.2949 3.71883Z" fill="white"/>
</svg>
